<svg width="242" height="83" viewBox="0 0 242 83" fill="none" xmlns="http://www.w3.org/2000/svg">
<path d="M3.16992 77.2152L3.16992 79.7152H5.66992H236.345H238.845V77.2152V23.8038V21.5747L236.631 21.3202L81.7718 3.51636L81.3649 3.46958L80.9643 3.55509L5.14798 19.7404L3.16992 20.1626V22.1853L3.16992 77.2152Z" fill="black" stroke="white" stroke-width="5"/>
<path d="M22.8849 57.9796L19.866 65.9217H13.6424L26.972 30.9488H33.9851L47.3612 65.8752H41.0447L38.0258 57.9796H22.8849ZM35.8894 52.4527L30.5018 38.1013L25.0213 52.4527H35.8894ZM66.192 39.4946V45.8576C65.356 45.8576 64.5355 45.935 63.7304 46.0898C62.9563 46.2136 62.1358 46.5852 61.2689 47.2044C60.2161 47.8856 59.4266 48.7681 58.9002 49.8518C58.3738 50.9045 58.1106 52.2979 58.1106 54.0318V65.9217H52.0264V40.7486H58.1106V43.5353L58.3428 43.6282C58.8073 43.0089 59.3337 42.4206 59.922 41.8633C60.5412 41.306 61.3308 40.826 62.2906 40.4235C63.0338 40.1139 63.8543 39.8817 64.7522 39.7269C65.6501 39.572 66.1301 39.4946 66.192 39.4946ZM84.6193 65.9681H81.3217C80.3618 65.9681 79.4949 65.8133 78.7208 65.5037C77.9777 65.225 77.2965 64.807 76.6772 64.2496C76.1818 63.7233 75.7638 63.0266 75.4232 62.1596C75.1136 61.2927 74.9588 60.3173 74.9588 59.2336V45.8111H71.9863V40.5629H74.9588V32.7602H81.1359V40.5629H84.6193V45.8111H81.1359V57.9796C81.1359 58.5679 81.1669 59.0324 81.2288 59.373C81.3217 59.6826 81.5539 59.9767 81.9255 60.2554C82.2661 60.5341 82.6376 60.7044 83.0402 60.7663C83.4736 60.7973 84 60.8127 84.6193 60.8127V65.9681ZM122.139 30.9953C126.938 30.9953 130.762 32.7137 133.61 36.1506C136.459 39.5566 137.883 43.6592 137.883 48.4585C137.883 53.2268 136.459 57.3604 133.61 60.8592C130.762 64.3271 126.938 66.0455 122.139 66.0145L109.088 65.9681V30.9953H122.139ZM121.21 60.3018C124.43 60.3018 126.922 59.2027 128.687 57.0043C130.483 54.8059 131.381 51.9573 131.381 48.4585C131.381 44.9596 130.483 42.1265 128.687 39.9591C126.922 37.7607 124.43 36.6615 121.21 36.6615H115.125V60.3018H121.21ZM156.331 39.4946C160.139 39.4946 163.158 40.8415 165.387 43.5353C167.648 46.2291 168.778 49.4338 168.778 53.1494C168.778 56.8649 167.648 60.0541 165.387 62.717C163.127 65.4108 160.093 66.7577 156.284 66.7577C152.445 66.7577 149.395 65.4108 147.135 62.717C144.905 60.0541 143.791 56.8649 143.791 53.1494C143.791 49.4338 144.921 46.2291 147.181 43.5353C149.441 40.8415 152.491 39.4946 156.331 39.4946ZM156.284 61.4165C158.297 61.4165 159.891 60.6115 161.068 59.0014C162.245 57.3604 162.833 55.4097 162.833 53.1494C162.833 50.8581 162.245 48.9229 161.068 47.3438C159.891 45.7337 158.297 44.9287 156.284 44.9287C154.302 44.9287 152.723 45.7337 151.547 47.3438C150.37 48.9229 149.782 50.8581 149.782 53.1494C149.782 55.4097 150.37 57.3604 151.547 59.0014C152.723 60.6115 154.302 61.4165 156.284 61.4165ZM198.331 48.6442L191.782 48.5978C191.565 47.9785 191.039 47.2509 190.203 46.4149C189.398 45.5789 188.159 45.1609 186.487 45.1609C184.413 45.1609 182.818 45.9504 181.704 47.5296C180.62 49.0777 180.078 50.951 180.078 53.1494C180.078 55.3168 180.635 57.2055 181.75 58.8156C182.865 60.3947 184.444 61.1843 186.487 61.1843C188.035 61.1843 189.228 60.7818 190.064 59.9767C190.931 59.1407 191.472 58.3512 191.689 57.6081L198.238 57.6545C197.711 59.791 196.442 61.8345 194.429 63.7852C192.417 65.7668 189.738 66.7577 186.394 66.7577C182.524 66.7577 179.459 65.4108 177.198 62.717C174.969 60.0541 173.854 56.8649 173.854 53.1494C173.854 49.4338 174.969 46.2446 177.198 43.5818C179.459 40.888 182.524 39.5411 186.394 39.5411C189.769 39.5411 192.494 40.5783 194.569 42.6529C196.674 44.7274 197.928 46.7245 198.331 48.6442ZM228.101 65.9217H221.088L212.449 54.3569L210.359 56.5863V65.9217H204.275V30.9953H210.359V48.9229L218.812 40.5629H226.475L216.722 50.1769L228.101 65.9217Z" fill="white"/>
</svg>
