<svg width="175" height="169" viewBox="0 0 175 169" fill="none" xmlns="http://www.w3.org/2000/svg">
<path d="M120.203 43.9419C121.72 43.1012 123.3 42.3713 124.931 41.7594L124.939 41.7563L124.947 41.7533C128.897 40.303 133.07 39.554 137.278 39.5401L120.203 43.9419ZM120.203 43.9419C120.239 43.7905 120.274 43.639 120.308 43.4871L120.314 43.4616L120.319 43.4359C120.824 40.9439 121.078 38.4078 121.079 35.8652C121.127 31.7488 120.296 27.6694 118.643 23.8992C116.988 20.1243 114.546 16.7462 111.48 13.9908L111.471 13.9826L111.462 13.9746C108.333 11.2171 104.703 9.08752 100.77 7.70209L100.757 7.69766L100.744 7.69336C92.1494 4.76888 82.8286 4.76888 74.2337 7.69336L74.2209 7.69774L74.208 7.70226C70.277 9.08767 66.6497 11.2177 63.5247 13.9757L63.5174 13.9822L63.51 13.9888C60.4398 16.7418 57.9939 20.1195 56.3363 23.8954C54.6804 27.6674 53.8494 31.7496 53.8991 35.8686C53.9058 38.4249 54.183 40.9733 54.7261 43.4712L54.7311 43.4943L54.7366 43.5173C54.7702 43.659 54.8046 43.8005 54.8399 43.9417C53.3296 43.1085 51.7571 42.3849 50.1344 41.7783L50.1268 41.7755C46.184 40.3162 42.0158 39.5596 37.8116 39.5401C37.812 39.5401 37.8124 39.5401 37.8127 39.5401L120.203 43.9419ZM25.5938 41.7659L25.5947 41.7655C29.4933 40.2722 33.6358 39.5175 37.8105 39.5401L25.5938 41.7659ZM25.5938 41.7659C21.798 43.2216 18.3315 45.4215 15.3981 48.2362L15.3887 48.2453M25.5938 41.7659L15.3887 48.2453M15.3887 48.2453L15.3793 48.2545M15.3887 48.2453L15.3793 48.2545M15.3793 48.2545C12.379 51.1944 10.0096 54.7151 8.41594 58.6016L8.4126 58.6097M15.3793 48.2545L8.4126 58.6097M8.4126 58.6097L8.40932 58.6179M8.4126 58.6097L8.40932 58.6179M8.40932 58.6179C6.64591 63.006 5.77552 67.7017 5.84902 72.4302C5.85157 78.3785 6.98941 83.5279 9.37498 87.7767C11.5904 91.7864 14.7237 95.2146 18.5185 97.781L18.5335 97.7912M8.40932 58.6179L18.5335 97.7912M18.5335 97.7912L18.5487 97.8011M18.5335 97.7912L18.5487 97.8011M18.5487 97.8011C22.4125 100.333 26.7181 102.116 31.2408 103.056C32.9796 103.431 34.7329 103.726 36.4954 103.942C32.8745 106.43 29.8791 109.327 27.5464 112.649C23.7299 118.036 21.7085 124.49 21.7689 131.092C21.7352 135.458 22.4592 139.796 23.9087 143.914C25.2637 147.823 27.4679 151.384 30.363 154.339L30.375 154.352M18.5487 97.8011L30.375 154.352M30.375 154.352L30.3872 154.364M30.375 154.352L30.3872 154.364M30.3872 154.364C33.4383 157.394 37.1152 159.721 41.1602 161.182L41.1635 161.183M30.3872 154.364L41.1635 161.183M41.1635 161.183C45.9187 162.892 50.946 163.718 55.9978 163.621C61.1926 163.767 66.3554 162.759 71.1142 160.669L71.1342 160.66M41.1635 161.183L71.1342 160.66M71.1342 160.66L71.1539 160.651M71.1342 160.66L71.1539 160.651M71.1539 160.651C75.0684 158.85 78.5686 156.26 81.4354 153.043L81.4444 153.033M71.1539 160.651L81.4444 153.033M81.4444 153.033L81.4533 153.023M81.4444 153.033L81.4533 153.023M81.4533 153.023C84.12 149.965 86.1724 146.421 87.4985 142.587C87.5205 142.524 87.5424 142.462 87.5642 142.4C87.586 142.462 87.6078 142.525 87.6298 142.587C88.9665 146.406 91.006 149.941 93.6429 153.009L93.6513 153.019M81.4533 153.023L93.6513 153.019M93.6513 153.019L93.6598 153.029M93.6513 153.019L93.6598 153.029M93.6598 153.029C96.4949 156.26 99.9792 158.858 103.886 160.652L103.905 160.661M93.6598 153.029L103.905 160.661M103.905 160.661L103.924 160.669M103.905 160.661L103.924 160.669M103.924 160.669C108.683 162.759 113.845 163.767 119.04 163.621C124.092 163.718 129.119 162.892 133.875 161.183L133.881 161.18M103.924 160.669L133.881 161.18M133.881 161.18C137.93 159.713 141.617 157.391 144.69 154.374L144.7 154.365M133.881 161.18L144.7 154.365M144.7 154.365L144.709 154.356M144.7 154.365L144.709 154.356M144.709 154.356C147.647 151.411 149.883 147.841 151.25 143.912C152.684 139.792 153.407 135.459 153.389 131.097C153.451 124.494 151.43 118.04 147.614 112.651C145.281 109.319 142.275 106.421 138.648 103.933C140.383 103.718 142.108 103.425 143.82 103.055C148.349 102.108 152.663 100.328 156.542 97.806L156.552 97.7996M144.709 154.356L156.552 97.7996M156.552 97.7996L156.561 97.7932M156.552 97.7996L156.561 97.7932M156.561 97.7932C160.393 95.2505 163.542 91.8061 165.731 87.7625C168.089 83.5112 169.196 78.3607 169.199 72.4359C169.263 67.6949 168.363 62.9904 166.555 58.6074C165.013 54.768 162.692 51.2896 159.74 48.3913M156.561 97.7932L159.74 48.3913M159.74 48.3913C156.785 45.4915 153.262 43.2354 149.393 41.7652M159.74 48.3913L149.393 41.7652M149.393 41.7652C145.528 40.2767 141.42 39.5221 137.278 39.5401L149.393 41.7652ZM70.0355 102.041L70.0304 102.036C67.7495 99.7715 65.9219 97.0925 64.6458 94.1427C63.3469 91.1062 62.6773 87.8378 62.6773 84.5351C62.6773 81.2332 63.3466 77.9655 64.6449 74.9295C67.2263 68.9817 71.9831 64.245 77.9419 61.6888C80.9779 60.3954 84.2439 59.7287 87.544 59.7287C90.8433 59.7287 94.1085 60.3951 97.1439 61.6878C103.089 64.2521 107.831 68.988 110.403 74.9293C111.7 77.9639 112.369 81.2299 112.369 84.5301C112.369 87.8325 111.699 91.1006 110.4 94.137L110.245 94.4994C108.986 97.3062 107.226 99.8619 105.052 102.042C102.786 104.3 100.107 106.101 97.1605 107.345C94.1138 108.616 90.8453 109.271 87.544 109.271C84.2425 109.271 80.9738 108.616 77.9268 107.345C74.9789 106.103 72.2992 104.301 70.0355 102.041Z" fill="#FFC300" stroke="white" stroke-width="5"/>
<path d="M114.869 84.4901C114.897 88.1494 114.158 91.7739 112.699 95.1301C111.305 98.3688 109.31 101.314 106.819 103.81C104.325 106.297 101.374 108.28 98.1295 109.65C94.7761 111.05 91.1783 111.771 87.5445 111.771C83.9107 111.771 80.3129 111.05 76.9595 109.65C73.7132 108.282 70.7622 106.299 68.2695 103.81C65.7614 101.32 63.7521 98.374 62.3495 95.1301C60.9165 91.7817 60.1777 88.1773 60.1777 84.5351C60.1777 80.8929 60.9165 77.2886 62.3495 73.9401C65.1846 67.4036 70.4114 62.1983 76.9595 59.3901C80.3062 57.9639 83.9066 57.2288 87.5445 57.2288C91.1824 57.2288 94.7828 57.9639 98.1295 59.3901C104.663 62.2067 109.874 67.411 112.699 73.9401C114.151 77.2668 114.89 80.8605 114.869 84.4901Z" fill="#FFF3CD"/>
<path d="M80.009 82.03C81.2792 82.03 82.309 79.7959 82.309 77.04C82.309 74.2841 81.2792 72.05 80.009 72.05C78.7387 72.05 77.709 74.2841 77.709 77.04C77.709 79.7959 78.7387 82.03 80.009 82.03Z" fill="#FF8C17"/>
<path d="M95.0793 82.03C96.3496 82.03 97.3793 79.7959 97.3793 77.04C97.3793 74.2841 96.3496 72.05 95.0793 72.05C93.809 72.05 92.7793 74.2841 92.7793 77.04C92.7793 79.7959 93.809 82.03 95.0793 82.03Z" fill="#FF8C17"/>
<path d="M108.748 85.4902L108.088 84.8802C107.84 85.1496 107.519 85.3419 107.165 85.4341C106.81 85.5263 106.436 85.5145 106.088 85.4002C105.739 85.2675 105.435 85.0399 105.209 84.743C104.982 84.4461 104.844 84.0918 104.808 83.7202L103.918 83.7802C103.952 84.2456 104.1 84.6955 104.35 85.0898C104.599 85.4841 104.942 85.8106 105.348 86.0402C105.305 88.2533 104.833 90.437 103.958 92.4702C103.052 94.585 101.748 96.5063 100.118 98.1302C98.4893 99.7556 96.5603 101.05 94.4384 101.94C92.2553 102.857 89.9112 103.33 87.5434 103.33C85.1755 103.33 82.8314 102.857 80.6484 101.94C78.5367 101.051 76.6178 99.7608 74.9984 98.1402C73.3727 96.5127 72.0698 94.5923 71.1584 92.4802C70.2824 90.4438 69.8104 88.2566 69.7684 86.0402C70.1726 85.8108 70.5145 85.4857 70.7638 85.0934C71.0131 84.7011 71.1623 84.2536 71.1984 83.7902L70.2984 83.7302C70.274 84.1045 70.14 84.4632 69.9131 84.7618C69.6862 85.0604 69.3764 85.2856 69.0224 85.4093C68.6683 85.533 68.2857 85.5498 67.9222 85.4575C67.5587 85.3651 67.2305 85.1679 66.9784 84.8902L66.3184 85.5002C66.5823 85.786 66.9024 86.0144 67.2585 86.1709C67.6147 86.3275 67.9993 86.409 68.3884 86.4102C68.5547 86.4255 68.722 86.4255 68.8884 86.4102C68.9762 88.6218 69.4711 90.7982 70.3484 92.8302C71.2972 95.0437 72.6541 97.0587 74.3484 98.7702C76.0483 100.479 78.0662 101.837 80.2884 102.77C82.5665 103.745 85.0205 104.242 87.4984 104.23C89.9982 104.245 92.4751 103.752 94.7784 102.78C96.994 101.835 99.0098 100.478 100.718 98.7802C102.409 97.0654 103.765 95.0512 104.718 92.8402C105.598 90.7919 106.09 88.5981 106.168 86.3702C106.328 86.3801 106.489 86.3801 106.648 86.3702C107.04 86.3782 107.43 86.304 107.791 86.1524C108.153 86.0009 108.479 85.7753 108.748 85.4902Z" fill="#FF8C17"/>
</svg>
