<svg width="190" height="123" viewBox="0 0 190 123" fill="none" xmlns="http://www.w3.org/2000/svg">
<path d="M185.5 105.848L186.268 105.08L187.123 104.225L186.983 103.024L176.483 12.5241L176.308 11.0116L174.883 10.4735C167.172 7.5604 153.966 4.05582 139.171 2.8949C124.708 1.76008 108.491 2.84605 94.3637 9.12847C79.4311 4.22079 43.5718 -2.14664 11.1573 9.45854L9.5 10.0519V11.8122V13.2672L4.88197 15.5762L3.29352 16.3704L3.5205 18.1318L16.0205 115.132L16.4703 118.622L19.618 117.048C30.0331 111.841 61.4775 103.884 101.288 115.709L102.226 115.987L103.104 115.555C113.34 110.516 144.028 103.088 182.217 115.686L185.5 116.77V113.312V105.848Z" fill="#FFAA00" stroke="white" stroke-width="5"/>
<path d="M6 17.8123L12 14.8123L183 105.312V113.312C144.2 100.512 112.833 107.979 102 113.312C61.6 101.312 29.5 109.312 18.5 114.812L6 17.8123Z" fill="#0086B5"/>
<path d="M12 11.8122C44.4 0.212235 80.5 6.9789 94.5 11.8122C122.1 -0.987721 159 7.14555 174 12.8122L184.5 103.312L183 104.812L181 108.812C147 97.2122 114.167 103.979 102 108.812C68 97.2122 33.8333 103.979 21 108.812L10 18.3122L12 16.8122V11.8122Z" fill="white"/>
<path d="M102 108.812C68 97.2122 33.8333 103.979 21 108.812L20.5 104.812C56.1 90.0123 91.8333 97.6455 105 103.312C132.2 89.3121 169.333 97.4788 184.5 103.312L183 104.812L181 108.812C147 97.2122 114.167 103.979 102 108.812Z" fill="#F4F4FC"/>
<path d="M100 15.8123C124.5 6.31229 156.292 10.5095 169.5 16.3124V29.8123C140.7 20.2123 112.167 25.8123 101.5 29.8123L100 15.8123Z" fill="#C8C8EE"/>
<path d="M64.5 10.8122C39.3 8.4122 23.3333 13.4789 18.5 16.3122L22 43.8123C34 37.4123 57.3333 38.1456 67.5 39.3123L64.5 10.8122Z" fill="#FFAA00"/>
<path d="M90 15.3123C80 12.1123 71.5 11.3123 68.5 11.3123L72 40.3123C77.6 39.9123 88.3333 42.4789 93 43.8123L90 15.3123Z" fill="#C8C8EE"/>
<path fill-rule="evenodd" clip-rule="evenodd" d="M105 58.8122L102.5 34.0401C108.385 31.8234 114.668 30.4174 121 29.6426L123.5 54.8637C115.415 55.8783 108.922 57.5048 105 58.8122Z" fill="#FFAA00"/>
<path d="M128.5 54.3387L125 29.2357C133.216 28.5651 141.391 28.8922 148.764 29.8254L145.809 54.1C139.664 53.7374 133.819 53.8885 128.5 54.3387Z" fill="#E35F00"/>
<path d="M171.5 35.5499L173.011 59.3122C165.483 56.7356 157.932 55.2385 150.701 54.4949L152.708 30.3933C160.432 31.6425 167.028 33.5326 171.5 35.5499Z" fill="#C8C8EE"/>
<path d="M93.5 48.8122C65.5 39.6122 34.8333 44.9789 23 48.8122L28.5 95.3123C50.9 85.7123 84.8333 91.3123 99 95.3123L93.5 48.8122Z" fill="#E35F00"/>
<path d="M105.5 63.3123L110 94.8122C120.031 92.0894 130.148 90.9539 139.5 90.7711L136 58.0527C122.782 58.1721 112.295 60.5945 105.5 63.3123Z" fill="#C8C8EE"/>
<path d="M177.5 95.3123L174.5 63.8124C161.815 59.9869 150.185 58.3504 140 58.0869L143.5 90.7497C158.508 90.8799 171.108 93.3456 177.5 95.3123Z" fill="#FFAA00"/>
</svg>
