<svg width="152" height="151" viewBox="0 0 152 151" fill="none" xmlns="http://www.w3.org/2000/svg">
<path d="M107.595 24.8225C107.784 24.5787 107.97 24.3259 108.148 24.0657C109.076 22.7091 110.128 20.6836 109.884 18.4878L109.795 17.6889L109.257 17.0915C108.306 16.0343 106.633 15.0406 104.49 14.9687C104.348 14.9639 104.206 14.9632 104.062 14.9666C104.16 14.3604 104.215 13.7296 104.215 13.0802C104.215 10.4554 103.128 8.35891 102.465 7.08044C102.447 7.04604 102.43 7.01224 102.412 6.97903C102.247 6.65992 102.122 6.41695 102.02 6.19903C102.001 6.15771 101.983 6.11988 101.968 6.08531C102.117 5.70998 102.225 5.203 102.11 4.61036C101.796 2.98702 100.352 2.59944 99.9216 2.53342C99.422 2.45678 98.9886 2.53022 98.7637 2.57688C98.4916 2.63332 98.229 2.71621 97.9909 2.80548C97.0649 3.15275 95.9159 3.82165 94.8244 4.77708C93.4066 6.01817 91.9605 7.86461 91.2551 10.3031C87.7789 8.52515 83.2825 7.56572 78.1123 8.60558C71.0432 10.0274 63.1096 15.1038 54.9726 26.0765C53.0815 26.0721 51.5895 26.2922 50.3253 26.6938C48.7846 27.1834 47.7373 27.9008 46.9486 28.4411L46.9026 28.4726C46.0839 29.0331 45.5568 29.3804 44.7176 29.6149C43.846 29.8584 42.4619 30.0191 40.021 29.775C32.2617 28.999 27.7233 30.6958 24.983 31.7313C24.3337 31.9766 23.928 32.1274 23.6054 32.2163C23.4958 32.2465 23.4255 32.2606 23.3873 32.267C22.0733 32.0601 20.0644 31.9756 17.9931 32.3293C15.8994 32.6867 13.3834 33.5556 11.6036 35.5896C11.1359 36.124 10.392 36.5869 9.43601 36.9394C8.49541 37.2862 7.50292 37.469 6.72678 37.5412C5.24635 37.6789 3.79259 38.7002 3.37305 40.3783C3.12085 41.3871 3.30509 42.4553 3.88039 43.3212V43.3627C3.88039 43.384 3.87543 43.4049 3.86593 43.424L3.99035 43.4862L3.99037 43.4862L3.86592 43.424L3.78909 43.5776C3.38191 44.392 3.16992 45.29 3.16992 46.2005V46.4002C3.16992 47.7041 3.61368 48.9692 4.42821 49.9873L6.38039 48.4256L4.42822 49.9874L4.5402 50.1273C3.88718 50.9029 3.52515 51.8874 3.52515 52.9091L3.52512 82.6125L3.52519 82.6254L3.52539 82.6582V82.6646V99.046V100.735L5.09196 101.365L119.792 147.529C119.822 147.542 119.89 147.57 119.974 147.598C120.132 147.65 120.283 147.704 120.451 147.763L120.454 147.764L120.469 147.77L120.471 147.77L120.473 147.771L120.476 147.772C121.339 148.077 122.356 148.437 123.962 148.437H124.101L124.238 148.421C125.423 148.29 126.413 147.538 127.012 147.032C127.73 146.425 128.493 145.626 129.265 144.731C130.819 142.93 132.61 140.505 134.444 137.83C138.12 132.468 142.112 125.888 144.936 120.772C146.077 118.705 145.883 116.427 145.491 114.768C144.759 111.672 144.994 106.62 145.543 101.846C146.08 97.1867 146.864 93.1988 147.017 92.4318C147.376 90.6374 149.249 79.9244 147.736 71.6013C146.839 66.6671 147.315 64.1539 147.831 61.4304L147.84 61.3829L147.847 61.3431C148.09 60.063 148.36 58.6397 148.48 56.9517C148.662 54.4113 148.141 52.5298 147.709 50.9716L147.692 50.9073L145.282 51.574L147.692 50.9073L147.686 50.8879C147.142 48.92 146.678 47.2458 147.361 44.1723C148.469 39.1859 148.036 35.3331 147.461 33.392C147.3 32.8495 147.002 32.181 146.433 31.5962C145.115 30.2427 143.142 29.7237 141.56 29.4492C139.891 29.1596 137.975 29.0451 136.238 28.9413L136.155 28.9363C134.615 28.8442 133.2 28.7582 131.962 28.5884C130.682 28.413 129.869 28.1799 129.422 27.9364C128.083 27.206 126.396 26.8049 124.787 26.5704C123.131 26.329 121.338 26.2345 119.654 26.2309C117.965 26.2273 116.336 26.315 114.995 26.4532C113.788 26.5775 112.517 26.7691 111.704 27.0845C111.689 27.0882 111.628 27.1031 111.509 27.1215C111.32 27.1506 111.063 27.1771 110.734 27.197C110.436 27.215 110.104 27.2262 109.745 27.2313C109.19 26.3914 108.481 25.5449 107.595 24.8225ZM4.02977 43.5059L3.99193 43.487C3.99192 43.487 3.99192 43.487 3.99191 43.4869L4.02977 43.5059ZM101.853 5.78429C101.853 5.78432 101.853 5.78641 101.854 5.79046C101.853 5.78629 101.853 5.78427 101.853 5.78429Z" fill="white" stroke="white" stroke-width="5"/>
<path d="M13.485 37.2361C11.8105 39.1498 8.84398 39.8553 6.95829 40.0307C6.4112 40.0816 5.93166 40.4519 5.7984 40.9849C5.71657 41.3122 5.77661 41.6589 5.96375 41.9396L6.0917 42.1315C6.27994 42.4139 6.38039 42.7456 6.38039 43.085V43.3629C6.38039 43.7723 6.28507 44.1761 6.10199 44.5422L6.02515 44.6959C5.79154 45.1631 5.66992 45.6783 5.66992 46.2007V46.4005C5.66992 47.1367 5.92048 47.851 6.38039 48.4259L6.58207 48.678C6.91142 49.0896 7.09085 49.6012 7.09085 50.1284V50.3365C7.09085 50.819 6.89918 51.2818 6.558 51.6229C6.21682 51.9641 6.02515 52.4269 6.02515 52.9093V55.3529V82.6127C6.02515 84.1986 6.88001 85.64 8.2849 86.3757C46.554 106.416 120.391 145.102 120.765 145.227C121.831 145.582 122.541 145.937 123.962 145.937C126.949 145.605 137.167 129.673 142.747 119.564C143.449 118.293 143.392 116.756 143.058 115.344C141.371 108.201 144.248 93.5309 144.566 91.9418C144.921 90.1656 146.697 79.8639 145.276 72.0488C143.855 64.2337 145.631 61.7471 145.987 56.7738C146.342 51.8006 143.5 50.0244 144.921 43.6302C145.946 39.0172 145.507 35.5983 145.064 34.1029C144.98 33.82 144.848 33.5518 144.642 33.3404C141.989 30.616 131.984 32.1818 128.225 30.1314C124.418 28.055 114.371 28.7105 112.595 29.4209C111.271 29.9502 106.354 29.6991 103.58 29.4708C103.197 29.4392 102.812 29.455 102.434 29.527C99.6339 30.0605 94.4665 31.2028 92.3465 32.2628C89.5047 33.6837 68.9012 29.7761 57.5338 28.7104C46.1664 27.6447 50.4291 33.3285 39.7722 32.2628C29.1152 31.1971 25.2077 35.1047 23.0763 34.7495C20.9449 34.3942 15.9716 34.3942 13.485 37.2361Z" fill="white"/>
<path d="M6.02539 99.0463V85.1922V81.2847L120.765 128.175V145.226L6.02539 99.0463Z" fill="#FFAA00"/>
<path d="M6.02539 85.1923L6.02539 65.2993L7.80155 65.6545L18.8137 72.0487L28.7602 73.8249L58.2445 84.1266L64.2834 85.1923L71.7433 89.0999L77.0718 89.8103L95.8991 96.5597L100.162 98.6911L109.753 101.533L120.765 104.375V132.438L107.622 123.557L100.162 122.492L62.5073 106.506L56.4683 105.441L41.1934 96.5597H36.5753L25.9184 93.0074L12.4196 85.1923H6.02539Z" fill="white"/>
<path d="M8.15678 57.8394L6.02539 54.9976V65.6545H7.80155L19.169 72.0487L28.7602 73.4696L58.2445 84.1266L64.6387 85.1923L71.7433 89.0998L77.7822 89.8103L96.2543 96.2045L99.0962 98.6911L120.765 104.02V92.2969L93.7677 82.7057L76.7166 80.5743L45.1009 66.7202L22.3661 65.2993L14.9062 59.2603L8.15678 57.8394Z" fill="#FFAA00"/>
<mask id="mask0_506_125" style="mask-type:alpha" maskUnits="userSpaceOnUse" x="9" y="75" width="109" height="62">
<path fill-rule="evenodd" clip-rule="evenodd" d="M42.6144 92.297C42.6144 101.714 35.2985 109.348 26.2738 109.348C17.2491 109.348 9.93311 101.714 9.93311 92.297C9.93311 82.8799 17.2491 75.2458 26.2738 75.2458C35.2985 75.2458 42.6144 82.8799 42.6144 92.297ZM77.4269 104.375C77.4269 113.792 69.9519 121.426 60.731 121.426C51.5101 121.426 44.0351 113.792 44.0351 104.375C44.0351 94.9575 51.5101 87.3235 60.731 87.3235C69.9519 87.3235 77.4269 94.9575 77.4269 104.375ZM99.4515 136.346C109.261 136.346 117.213 128.712 117.213 119.294C117.213 109.877 109.261 102.243 99.4515 102.243C89.642 102.243 81.6899 109.877 81.6899 119.294C81.6899 128.712 89.642 136.346 99.4515 136.346Z" fill="#E35F00"/>
</mask>
<g mask="url(#mask0_506_125)">
<path d="M128.581 129.241C89.8603 113.611 11.9224 82.2081 9.93311 81.6397L9.93311 65.2991L128.581 105.796V129.241Z" fill="#E35F00"/>
</g>
<path d="M53.0483 33.3284C71.5204 4.05726 88.2163 9.29101 94.2552 15.5668C99.5837 19.1559 101.005 33.3284 101.005 37.236C101.005 41.1435 101.005 47.1824 72.9413 45.7615C50.4907 44.6248 50.3249 36.9991 53.0483 33.3284Z" fill="#E35F00"/>
<path d="M85.0195 19.4743C89.9928 16.6325 94.2556 18.7639 94.6108 18.7639C89.6375 8.10691 100.65 3.84412 99.584 5.26505C98.5183 6.68598 101.715 9.1726 101.715 13.0802C101.715 16.2062 100.058 18.8823 99.2288 19.8295C103.207 16.1351 106.333 17.5798 107.399 18.7639C107.683 21.3216 104.913 24.3292 103.492 25.5132C107.186 26.3658 108.82 30.3681 109.175 32.2626C104.06 34.2519 101.123 30.2497 100.295 27.9999C100.579 32.2626 99.2288 35.9334 98.5183 37.2359C90.7032 34.0388 96.387 25.8685 95.6765 26.2237C94.966 26.5789 90.348 27.2894 89.9928 25.5132C89.7086 24.0923 86.5589 20.8952 85.0195 19.4743Z" fill="#009D87"/>
</svg>
