<svg width="258" height="257" viewBox="0 0 258 257" fill="none" xmlns="http://www.w3.org/2000/svg">
<mask id="path-1-outside-1_479_457" maskUnits="userSpaceOnUse" x="32.3447" y="14" width="210" height="211" fill="black">
<rect fill="white" x="32.3447" y="14" width="210" height="211"/>
<path fill-rule="evenodd" clip-rule="evenodd" d="M154.335 44.5C154.335 58.5833 142.918 70 128.835 70C125.208 70 121.759 69.2431 118.636 67.8787C108.545 89.2961 111.397 114.019 127.112 129.883C147.795 150.762 184.033 149.506 208.096 125.668C232.159 101.831 233.757 65.6061 213.074 44.7272C197.693 29.2004 173.709 25.915 152.528 35.0542C153.694 37.9755 154.335 41.1629 154.335 44.5ZM147.723 27.3682C143.058 22.2279 136.323 19 128.835 19C114.751 19 103.335 30.4167 103.335 44.5C103.335 51.695 106.314 58.194 111.107 62.8302C103.634 77.9843 101.748 94.915 105.835 110.198L105.83 110.199C109.368 127.49 103.464 147.678 88.4202 162.581L74.2115 176.657L73.1559 175.591L43.3177 205.149C42.9291 204.757 42.2959 204.754 41.9035 205.143L37.641 209.365C37.2486 209.754 37.2456 210.387 37.6343 210.779L46.0795 219.305C46.4682 219.697 47.1013 219.7 47.4937 219.311L51.7563 215.089C52.1486 214.7 52.1516 214.067 51.7629 213.675L81.6011 184.116L80.5454 183.051L94.7541 168.975C109.23 154.636 132.494 150.525 148.01 151.719C170.276 157.325 195.906 150.413 214.43 132.062C241.374 105.371 244.26 63.4205 219.468 38.3933C200.732 19.4797 172.182 16.282 147.723 27.3682ZM108.992 149.163C115.762 146.331 122.814 144.527 129.547 143.526C126.422 141.424 123.465 138.989 120.718 136.217C118.659 134.138 116.79 131.942 115.111 129.648C114.106 136.275 112.054 142.871 108.992 149.163Z"/>
</mask>
<path fill-rule="evenodd" clip-rule="evenodd" d="M154.335 44.5C154.335 58.5833 142.918 70 128.835 70C125.208 70 121.759 69.2431 118.636 67.8787C108.545 89.2961 111.397 114.019 127.112 129.883C147.795 150.762 184.033 149.506 208.096 125.668C232.159 101.831 233.757 65.6061 213.074 44.7272C197.693 29.2004 173.709 25.915 152.528 35.0542C153.694 37.9755 154.335 41.1629 154.335 44.5ZM147.723 27.3682C143.058 22.2279 136.323 19 128.835 19C114.751 19 103.335 30.4167 103.335 44.5C103.335 51.695 106.314 58.194 111.107 62.8302C103.634 77.9843 101.748 94.915 105.835 110.198L105.83 110.199C109.368 127.49 103.464 147.678 88.4202 162.581L74.2115 176.657L73.1559 175.591L43.3177 205.149C42.9291 204.757 42.2959 204.754 41.9035 205.143L37.641 209.365C37.2486 209.754 37.2456 210.387 37.6343 210.779L46.0795 219.305C46.4682 219.697 47.1013 219.7 47.4937 219.311L51.7563 215.089C52.1486 214.7 52.1516 214.067 51.7629 213.675L81.6011 184.116L80.5454 183.051L94.7541 168.975C109.23 154.636 132.494 150.525 148.01 151.719C170.276 157.325 195.906 150.413 214.43 132.062C241.374 105.371 244.26 63.4205 219.468 38.3933C200.732 19.4797 172.182 16.282 147.723 27.3682ZM108.992 149.163C115.762 146.331 122.814 144.527 129.547 143.526C126.422 141.424 123.465 138.989 120.718 136.217C118.659 134.138 116.79 131.942 115.111 129.648C114.106 136.275 112.054 142.871 108.992 149.163Z" fill="#FFAA01"/>
<path d="M118.636 67.8787L120.637 63.2968L116.184 61.3513L114.113 65.7476L118.636 67.8787ZM127.112 129.883L123.56 133.402L127.112 129.883ZM213.074 44.7272L209.522 48.246V48.246L213.074 44.7272ZM152.528 35.0542L150.547 30.4633L146.082 32.3901L147.884 36.9073L152.528 35.0542ZM147.723 27.3682L144.02 30.7285L146.469 33.4263L149.787 31.9223L147.723 27.3682ZM111.107 62.8302L115.592 65.0417L117.204 61.7715L114.584 59.2364L111.107 62.8302ZM105.835 110.198L106.837 115.097L112.036 114.034L110.665 108.907L105.835 110.198ZM105.83 110.199L104.828 105.301L99.9283 106.302L100.931 111.202L105.83 110.199ZM88.4202 162.581L84.9013 159.029H84.9013L88.4202 162.581ZM74.2115 176.657L70.6594 180.176L74.1782 183.728L77.7303 180.209L74.2115 176.657ZM73.1559 175.591L76.708 172.072L73.1892 168.52L69.637 172.039L73.1559 175.591ZM43.3177 205.149L39.7656 208.668L43.2844 212.22L46.8366 208.701L43.3177 205.149ZM41.9035 205.143L38.3848 201.59L38.3847 201.591L41.9035 205.143ZM37.641 209.365L41.1597 212.917L41.1598 212.917L37.641 209.365ZM37.6343 210.779L41.1864 207.261L41.1864 207.261L37.6343 210.779ZM46.0795 219.305L49.6317 215.786L49.6317 215.786L46.0795 219.305ZM47.4937 219.311L51.0125 222.864L51.0125 222.863L47.4937 219.311ZM51.7563 215.089L55.2751 218.641L55.2752 218.641L51.7563 215.089ZM51.7629 213.675L48.2441 210.122L44.6919 213.641L48.2109 217.193L51.7629 213.675ZM81.6011 184.116L85.1199 187.668L88.6721 184.15L85.1532 180.597L81.6011 184.116ZM80.5454 183.051L77.0266 179.499L73.4744 183.017L76.9933 186.57L80.5454 183.051ZM94.7541 168.975L98.2729 172.527L94.7541 168.975ZM148.01 151.719L149.23 146.87L148.818 146.766L148.393 146.733L148.01 151.719ZM214.43 132.062L210.912 128.51L214.43 132.062ZM219.468 38.3933L215.916 41.9121L219.468 38.3933ZM129.547 143.526L130.282 148.472L143.039 146.575L132.337 139.377L129.547 143.526ZM108.992 149.163L104.497 146.975L98.6993 158.887L110.922 153.775L108.992 149.163ZM120.718 136.217L117.166 139.736L117.166 139.736L120.718 136.217ZM115.111 129.648L119.145 126.694L111.983 116.912L110.167 128.899L115.111 129.648ZM128.835 75C145.679 75 159.335 61.3447 159.335 44.5H149.335C149.335 55.8218 140.156 65 128.835 65V75ZM116.634 72.4606C120.377 74.0955 124.507 75 128.835 75V65C125.91 65 123.141 64.3907 120.637 63.2968L116.634 72.4606ZM130.664 126.364C116.652 112.219 113.819 89.832 123.159 70.0098L114.113 65.7476C103.27 88.7602 106.142 115.819 123.56 133.402L130.664 126.364ZM204.578 122.116C182.124 144.359 149.072 144.946 130.664 126.364L123.56 133.402C146.518 156.577 185.943 154.652 211.615 129.22L204.578 122.116ZM209.522 48.246C227.93 66.8282 227.031 99.873 204.578 122.116L211.615 129.22C237.287 103.789 239.585 64.384 216.626 41.2083L209.522 48.246ZM154.509 39.6451C174.1 31.1919 195.805 34.3996 209.522 48.246L216.626 41.2083C199.581 24.0012 173.319 20.6381 150.547 30.4633L154.509 39.6451ZM159.335 44.5C159.335 40.5177 158.569 36.7021 157.172 33.2012L147.884 36.9073C148.818 39.2488 149.335 41.808 149.335 44.5H159.335ZM151.425 24.008C145.852 17.8674 137.792 14 128.835 14V24C134.854 24 140.263 26.5884 144.02 30.7285L151.425 24.008ZM128.835 14C111.99 14 98.3346 27.6553 98.3346 44.5H108.335C108.335 33.1782 117.513 24 128.835 24V14ZM98.3346 44.5C98.3346 53.105 101.905 60.8848 107.631 66.4241L114.584 59.2364C110.724 55.5033 108.335 50.2851 108.335 44.5H98.3346ZM106.623 60.6188C98.6536 76.7793 96.5825 94.9514 101.005 111.49L110.665 108.907C106.914 94.8786 108.615 79.1894 115.592 65.0417L106.623 60.6188ZM104.834 105.3L104.828 105.301L106.831 115.098L106.837 115.097L104.834 105.3ZM100.931 111.202C104.106 126.716 98.8377 145.224 84.9013 159.029L91.939 166.134C108.091 150.133 114.63 128.263 110.728 109.197L100.931 111.202ZM84.9013 159.029L70.6927 173.105L77.7303 180.209L91.939 166.134L84.9013 159.029ZM77.7637 173.138L76.708 172.072L69.6037 179.11L70.6594 180.176L77.7637 173.138ZM69.637 172.039L39.7989 201.597L46.8366 208.701L76.6747 179.143L69.637 172.039ZM46.8699 201.63C44.5378 199.276 40.7389 199.258 38.3848 201.59L45.4223 208.695C43.8529 210.249 41.3204 210.238 39.7656 208.668L46.8699 201.63ZM38.3847 201.591L34.1221 205.813L41.1598 212.917L45.4224 208.695L38.3847 201.591ZM34.1222 205.813C31.7679 208.145 31.7501 211.944 34.0822 214.298L41.1864 207.261C42.7411 208.83 42.7293 211.363 41.1597 212.917L34.1222 205.813ZM34.0821 214.298L42.5273 222.823L49.6317 215.786L41.1864 207.261L34.0821 214.298ZM42.5273 222.823C44.8594 225.178 48.6584 225.195 51.0125 222.864L43.9749 215.759C45.5443 214.205 48.0769 214.216 49.6317 215.786L42.5273 222.823ZM51.0125 222.863L55.2751 218.641L48.2375 211.537L43.9749 215.759L51.0125 222.863ZM55.2752 218.641C57.6292 216.309 57.6473 212.51 55.315 210.156L48.2109 217.193C46.656 215.624 46.6681 213.091 48.2374 211.537L55.2752 218.641ZM55.2818 217.227L85.1199 187.668L78.0822 180.564L48.2441 210.122L55.2818 217.227ZM85.1532 180.597L84.0976 179.532L76.9933 186.57L78.0489 187.635L85.1532 180.597ZM84.0642 186.603L98.2729 172.527L91.2352 165.423L77.0266 179.499L84.0642 186.603ZM98.2729 172.527C111.339 159.584 132.925 155.573 147.626 156.704L148.393 146.733C132.062 145.477 107.12 149.687 91.2352 165.423L98.2729 172.527ZM146.789 156.567C170.855 162.626 198.258 155.121 217.949 135.614L210.912 128.51C193.554 145.705 169.696 152.023 149.23 146.87L146.789 156.567ZM217.949 135.614C246.486 107.345 250.102 62.213 223.02 34.8744L215.916 41.9121C238.419 64.628 236.262 103.397 210.912 128.51L217.949 135.614ZM223.02 34.8744C202.583 14.2437 171.707 11.0077 145.659 22.8142L149.787 31.9223C172.657 21.5563 198.881 24.7157 215.916 41.9121L223.02 34.8744ZM128.811 138.58C121.727 139.634 114.267 141.537 107.063 144.55L110.922 153.775C117.258 151.126 123.9 149.421 130.282 148.472L128.811 138.58ZM117.166 139.736C120.146 142.744 123.359 145.39 126.756 147.675L132.337 139.377C129.485 137.459 126.783 135.235 124.27 132.698L117.166 139.736ZM111.076 132.602C112.902 135.095 114.931 137.48 117.166 139.736L124.27 132.698C122.386 130.796 120.678 128.789 119.145 126.694L111.076 132.602ZM113.488 151.351C116.767 144.614 118.973 137.534 120.054 130.397L110.167 128.899C109.24 135.016 107.342 141.128 104.497 146.975L113.488 151.351Z" fill="white" mask="url(#path-1-outside-1_479_457)"/>
<ellipse cx="170.103" cy="87.3051" rx="58.5" ry="65" transform="rotate(45.27 170.103 87.3051)" stroke="#0086B5" stroke-width="9"/>
<mask id="mask0_479_457" style="mask-type:alpha" maskUnits="userSpaceOnUse" x="112" y="30" width="116" height="115">
<ellipse cx="170.103" cy="87.3051" rx="54" ry="60" transform="rotate(45.27 170.103 87.3051)" fill="#0086B5"/>
</mask>
<g mask="url(#mask0_479_457)">
<path d="M181.865 15.2349L98.9087 97.4132" stroke="white" stroke-width="2"/>
<path d="M190.311 23.7598L107.354 105.938" stroke="white" stroke-width="2"/>
<path d="M198.755 32.2852L115.798 114.463" stroke="white" stroke-width="2"/>
<path d="M207.2 40.8105L124.244 122.989" stroke="white" stroke-width="2"/>
<path d="M215.646 49.3354L132.689 131.514" stroke="white" stroke-width="2"/>
<path d="M224.091 57.8608L141.134 140.039" stroke="white" stroke-width="2"/>
<path d="M232.536 66.3857L149.58 148.564" stroke="white" stroke-width="2"/>
<path d="M240.981 74.9111L158.025 157.089" stroke="white" stroke-width="2"/>
<path d="M240.872 98.082L158.694 15.1255" stroke="white" stroke-width="2"/>
<path d="M232.347 106.527L150.168 23.5708" stroke="white" stroke-width="2"/>
<path d="M223.821 114.973L141.643 32.0162" stroke="white" stroke-width="2"/>
<path d="M215.297 123.417L133.119 40.461" stroke="white" stroke-width="2"/>
<path d="M206.771 131.863L124.593 48.9063" stroke="white" stroke-width="2"/>
<path d="M198.246 140.308L116.068 57.3516" stroke="white" stroke-width="2"/>
<path d="M189.721 148.753L107.542 65.7969" stroke="white" stroke-width="2"/>
<path d="M181.196 157.198L99.018 74.242" stroke="white" stroke-width="2"/>
</g>
<path d="M91.597 165.778C107.637 149.888 114.114 128.186 110.248 109.297" stroke="#0086B5" stroke-width="9"/>
<path d="M149.313 147.312C133.057 145.821 107.637 149.888 91.5967 165.779L54.299 202.726" stroke="#0086B5" stroke-width="9"/>
<rect x="73.165" y="175.591" width="12" height="44" transform="rotate(45.27 73.165 175.591)" fill="#3C3C46"/>
<rect x="42.624" y="204.439" width="14" height="8" rx="1" transform="rotate(45.27 42.624 204.439)" fill="#3C3C46"/>
<circle cx="128.845" cy="44.5" r="25.5" fill="#FFAA01"/>
<mask id="mask1_479_457" style="mask-type:alpha" maskUnits="userSpaceOnUse" x="103" y="19" width="52" height="51">
<circle cx="128.845" cy="44.5" r="25.5" fill="#FFAA01"/>
</mask>
<g mask="url(#mask1_479_457)">
<path d="M195.345 44.5C195.345 59.208 184.306 71 170.845 71C157.384 71 146.345 59.208 146.345 44.5C146.345 29.792 157.384 18 170.845 18C184.306 18 195.345 29.792 195.345 44.5Z" stroke="white" stroke-width="2"/>
<path d="M112.345 44.5C112.345 59.208 101.306 71 87.8447 71C74.3835 71 63.3447 59.208 63.3447 44.5C63.3447 29.792 74.3835 18 87.8447 18C101.306 18 112.345 29.792 112.345 44.5Z" stroke="white" stroke-width="2"/>
</g>
</svg>
