<svg width="173" height="173" viewBox="0 0 173 173" fill="none" xmlns="http://www.w3.org/2000/svg">
<path d="M86.5 170.5C132.892 170.5 170.5 132.892 170.5 86.5C170.5 40.1081 132.892 2.5 86.5 2.5C40.1081 2.5 2.5 40.1081 2.5 86.5C2.5 132.892 40.1081 170.5 86.5 170.5Z" fill="#FDC5F5" stroke="white" stroke-width="5"/>
<path d="M86.4999 156.85C72.5832 156.852 58.9784 152.727 47.4062 144.996C35.8341 137.266 26.8143 126.277 21.4877 113.42C16.161 100.563 14.7668 86.4152 17.4814 72.7658C20.1959 59.1164 26.8973 46.5785 36.7379 36.7379C46.5785 26.8973 59.1164 20.1959 72.7658 17.4814C86.4152 14.7668 100.563 16.161 113.42 21.4877C126.277 26.8143 137.266 35.8341 144.996 47.4062C152.727 58.9784 156.852 72.5832 156.85 86.4999C156.829 105.151 149.41 123.033 136.221 136.221C123.033 149.41 105.151 156.829 86.4999 156.85ZM86.4999 25.9999C74.5398 26.0039 62.8494 29.5538 52.9066 36.201C42.9637 42.8481 35.215 52.294 30.6399 63.3445C26.0647 74.3949 24.8687 86.5538 27.203 98.2839C29.5373 110.014 35.297 120.789 43.7541 129.246C52.2112 137.703 62.9858 143.463 74.7159 145.797C86.4461 148.131 98.6049 146.935 109.655 142.36C120.706 137.785 130.152 130.036 136.799 120.093C143.446 110.15 146.996 98.46 147 86.4999C146.987 70.4584 140.608 55.0777 129.265 43.7346C117.922 32.3915 102.541 26.0132 86.4999 25.9999Z" fill="#6D47A8"/>
<path d="M59.8101 77.3699C67.1168 77.3699 73.0401 71.4466 73.0401 64.1399C73.0401 56.8332 67.1168 50.9099 59.8101 50.9099C52.5034 50.9099 46.5801 56.8332 46.5801 64.1399C46.5801 71.4466 52.5034 77.3699 59.8101 77.3699Z" fill="#6D47A8"/>
<path d="M113.18 77.3699C120.487 77.3699 126.41 71.4466 126.41 64.1399C126.41 56.8332 120.487 50.9099 113.18 50.9099C105.873 50.9099 99.9502 56.8332 99.9502 64.1399C99.9502 71.4466 105.873 77.3699 113.18 77.3699Z" fill="#6D47A8"/>
<path d="M86.5002 134.61C75.7198 134.604 65.2424 131.043 56.6911 124.478C48.1399 117.914 41.9921 108.713 39.2002 98.3L37.9302 93.53L47.4702 91L48.7502 95.77C50.9757 104.081 55.8818 111.425 62.7073 116.664C69.5328 121.902 77.8963 124.741 86.5002 124.741C95.1041 124.741 103.468 121.902 110.293 116.664C117.119 111.425 122.025 104.081 124.25 95.77L125.52 91L135.06 93.54L133.79 98.31C130.997 108.719 124.85 117.917 116.301 124.479C107.752 131.041 97.2775 134.602 86.5002 134.61Z" fill="#6D47A8"/>
</svg>
